<svg width="1161" height="300" viewBox="0 0 1161 300" fill="none" xmlns="http://www.w3.org/2000/svg">
<path d="M435.167 200.485C410.089 200.485 394.031 179.587 394.031 150.769C394.031 121.951 410.089 101.492 434.728 101.492C452.986 101.492 466.405 112.932 471.245 130.97L505.562 124.811C498.963 92.9131 471.025 71.7947 434.068 71.7947C388.531 71.7947 358.613 103.912 358.613 150.989C358.613 198.065 388.751 230.183 434.728 230.183C471.685 230.183 499.183 209.504 506.442 177.167L472.125 171.007C467.065 189.046 453.426 200.485 435.167 200.485Z" fill="black"/>
<path d="M625.719 172.767C625.719 139.33 603.941 114.032 570.064 114.032C536.626 114.032 513.528 138.45 513.528 171.887C513.528 205.765 537.066 230.183 570.724 230.183C593.602 230.183 613.62 219.624 622.86 196.965L592.062 191.246C587.882 199.605 580.183 203.125 571.164 203.125C558.185 203.125 547.625 195.205 546.085 181.786H625.059C625.499 178.927 625.719 175.847 625.719 172.767ZM546.965 158.688C548.945 146.589 558.844 139.55 569.844 139.55C580.843 139.55 590.962 146.589 592.282 158.688H546.965Z" fill="black"/>
<path d="M708.737 114.032C690.259 114.032 679.48 117.551 669.14 134.27V116.231H635.043V227.983H669.14V175.627C669.14 151.209 684.099 143.509 699.498 143.509C702.578 143.509 705.658 143.729 708.737 144.389V114.032Z" fill="black"/>
<path d="M757.799 114.032C735.36 114.032 713.802 126.791 708.962 149.009L739.76 154.288C740.64 146.589 747.46 140.65 756.699 140.65C766.818 140.65 772.978 146.809 772.978 154.728V157.808C747.9 157.808 706.323 163.088 706.323 196.085C706.323 216.544 722.161 230.183 741.74 230.183C754.499 230.183 765.718 225.563 772.978 215.224V227.983H807.075V157.368C807.075 129.21 784.857 114.032 757.799 114.032ZM772.978 182.666C772.978 195.205 764.178 205.545 752.299 205.545C744.16 205.545 739.54 201.365 739.54 195.205C739.54 180.686 765.498 180.027 772.978 180.027V182.666Z" fill="black"/>
<path d="M951.68 114.032C937.161 114.032 923.962 119.971 916.702 133.17C910.763 120.851 899.324 114.032 885.685 114.032C873.366 114.032 861.706 119.751 854.887 130.75V116.231H820.79V227.983H854.887V169.907C854.887 157.588 858.187 144.389 872.926 144.389C884.585 144.389 888.544 152.529 888.544 163.528V227.983H922.642V169.907C922.642 157.588 925.282 144.389 939.801 144.389C951.46 144.389 955.639 152.529 955.639 163.528V227.983H989.737V156.488C989.737 132.07 976.978 114.032 951.68 114.032Z" fill="black"/>
<path d="M1020.85 102.152C1032.07 102.152 1040.87 93.3531 1040.87 82.1339C1040.87 70.9148 1032.07 62.1155 1020.85 62.1155C1009.63 62.1155 1000.83 70.9148 1000.83 82.1339C1000.83 93.3531 1009.63 102.152 1020.85 102.152ZM1038.01 227.983V116.231H1003.91V227.983H1038.01Z" fill="black"/>
<path d="M1106.17 201.585C1089.46 201.585 1082.64 186.846 1082.64 172.107C1082.64 157.148 1089.68 142.849 1106.17 142.849C1117.61 142.849 1125.97 150.549 1128.17 161.548L1160.51 155.828C1156.77 129.87 1131.47 114.032 1106.61 114.032C1072.96 114.032 1048.32 138.23 1048.32 172.107C1048.32 205.985 1072.74 230.183 1106.61 230.183C1131.47 230.183 1156.77 214.564 1160.51 188.386L1128.17 182.666C1125.97 193.885 1117.61 201.585 1106.17 201.585Z" fill="black"/>
<path fill-rule="evenodd" clip-rule="evenodd" d="M164.4 3.80101C169.071 6.42828 172.936 10.2778 175.578 14.935C190.462 41.1707 205.753 62.1229 221.45 77.7917C237.072 93.3853 258.003 108.643 284.242 123.565L285.039 124.017C299.198 132.032 304.166 149.988 296.136 164.121C293.499 168.762 289.647 172.599 284.993 175.223C259.059 189.844 238.202 204.926 222.421 220.469C206.469 236.18 190.902 257.425 175.72 284.203L175.26 285.016C169.907 294.502 160.07 299.882 149.895 300L149.895 0.0073948C154.815 -0.00337291 159.807 1.21768 164.4 3.80101Z" fill="#FF3600"/>
<path fill-rule="evenodd" clip-rule="evenodd" d="M185.14 113.288L185.735 113.872L185.969 114.104L186.204 114.337C205.815 133.635 206.041 165.147 186.708 184.723L186.465 184.967L186.22 185.21L185.914 185.513L185.608 185.819C175.783 195.682 162.872 200.619 149.957 200.619L149.957 99.1009C162.648 99.0878 175.341 103.818 185.14 113.288Z" fill="#FFB08A"/>
<path fill-rule="evenodd" clip-rule="evenodd" d="M135.577 3.79369C130.905 6.42095 127.041 10.2705 124.398 14.9277C109.514 41.1633 94.2236 62.1156 78.5264 77.7843C62.9045 93.3779 41.9739 108.636 15.7348 123.558L14.9381 124.01C0.779254 132.025 -4.18907 149.98 3.84099 164.113C6.47788 168.754 10.3295 172.592 14.9836 175.216C40.9175 189.837 61.7748 204.918 77.5555 220.461C93.5076 236.172 109.075 257.417 124.256 284.195L124.716 285.008C130.07 294.495 139.907 299.875 150.082 299.993L150.082 7.0582e-05C145.161 -0.0106971 140.17 1.21035 135.577 3.79369Z" fill="#FFB08A"/>
<path fill-rule="evenodd" clip-rule="evenodd" d="M114.844 113.282L114.25 113.866L114.016 114.099L113.78 114.332C94.1691 133.629 93.9435 165.142 113.276 184.718L113.519 184.962L113.764 185.205L114.07 185.508L114.376 185.813C124.201 195.677 137.113 200.614 150.027 200.614L150.027 99.0955C137.337 99.0824 124.643 103.813 114.844 113.282Z" fill="#FF3600"/>
</svg>
